<svg width="467" height="88" viewBox="0 0 467 88" fill="none" xmlns="http://www.w3.org/2000/svg">
<g clip-path="url(#clip0_3_2)">
<path d="M1.5 62.11V13.35C1.50339 12.7805 1.72952 12.2349 2.13 11.83C2.33462 11.6272 2.57858 11.4685 2.84688 11.3636C3.11517 11.2587 3.40211 11.2098 3.69 11.22C5.3 11.22 8.88 11.22 14.87 10.96C19.87 10.74 23.29 11.75 25.17 14.05C26.85 16.05 27.07 18.79 27.26 21.16C27.26 21.34 27.26 21.51 27.26 21.68C27.45 23.87 27.38 27.26 27.31 30.52C27.31 32.67 27.23 34.7 27.31 36.12C27.45 41.12 29.56 57.37 50.94 57.37C58.38 57.37 64.19 55.05 68.22 50.47C76.59 40.95 75.03 24.24 74.58 20.64H67.15L52.69 44.23C52.5013 44.5351 52.2378 44.7871 51.9246 44.962C51.6114 45.137 51.2588 45.2292 50.9 45.23C50.5369 45.2306 50.1795 45.1392 49.8613 44.9643C49.543 44.7894 49.2742 44.5368 49.08 44.23L34.42 21.65C34.2145 21.3276 34.0992 20.956 34.086 20.5738C34.0728 20.1917 34.1622 19.8131 34.3449 19.4772C34.5277 19.1414 34.797 18.8606 35.125 18.6641C35.453 18.4676 35.8277 18.3626 36.21 18.36H65.84L73.49 5.82999H36.95C36.792 5.84484 36.6326 5.82654 36.4821 5.77625C36.3316 5.72596 36.1932 5.6448 36.0759 5.53796C35.9585 5.43112 35.8648 5.30096 35.8006 5.1558C35.7365 5.01064 35.7033 4.85369 35.7033 4.69499C35.7033 4.53629 35.7365 4.37934 35.8006 4.23419C35.8648 4.08903 35.9585 3.95887 36.0759 3.85203C36.1932 3.74519 36.3316 3.66403 36.4821 3.61374C36.6326 3.56345 36.792 3.54515 36.95 3.55999H73.75C74.1285 3.55962 74.5003 3.66012 74.8271 3.85114C75.1538 4.04217 75.4238 4.31682 75.6092 4.64682C75.7945 4.97683 75.8886 5.35027 75.8817 5.72872C75.8749 6.10717 75.7673 6.47695 75.57 6.79999L68.51 18.36H74.69C75.2088 18.3604 75.7098 18.5492 76.0997 18.8914C76.4897 19.2335 76.7421 19.7057 76.81 20.22C77.3632 24.6936 77.4135 29.2152 76.96 33.7C76.15 41.44 73.78 47.58 69.96 51.97C65.48 57.06 59.09 59.64 50.96 59.64C45.9074 59.795 40.898 58.6665 36.4 56.36C33.1752 54.6037 30.4814 52.0135 28.6 48.86C26.3445 45.0099 25.1024 40.6507 24.99 36.19C24.99 34.71 24.99 32.65 24.99 30.48C25.05 27.42 25.12 23.95 24.99 21.87C24.99 21.7 24.99 21.52 24.99 21.35C24.62 16.78 24.3 12.83 14.99 13.24C9.12001 13.49 5.53 13.51 3.84 13.5V61.96H15.84C16.1424 61.96 16.4323 62.0801 16.6461 62.2939C16.8599 62.5077 16.98 62.7976 16.98 63.1C16.98 63.4023 16.8599 63.6923 16.6461 63.9061C16.4323 64.1199 16.1424 64.24 15.84 64.24H3.63C3.0659 64.2374 2.52565 64.0121 2.12677 63.6132C1.72789 63.2143 1.50263 62.6741 1.5 62.11Z" fill="#0073EA" stroke="#0073EA" stroke-width="3" stroke-miterlimit="10"/>
<path d="M88.55 1.12H110.69C123.61 1.12 132.26 10.04 132.26 21.95C132.26 33.86 123.61 42.78 110.69 42.78H99.69V66.22H88.55V1.12ZM120.92 21.95C120.92 15.81 116.92 11.72 109.29 11.72H99.69V32.18H109.27C116.92 32.18 120.92 28.09 120.92 21.95Z" fill="#003399"/>
<path d="M134.69 1.12H145.89V66.22H134.69V1.12Z" fill="#003399"/>
<path d="M191.57 37.47V66.22H181.25V60.64C181.25 60.64 176.69 67.33 166.74 67.33C158.46 67.33 150.84 61.94 150.84 52.55C150.84 44.08 158.56 37.94 168.14 37.94C176.23 37.94 180.41 41.11 180.41 41.11V38.6C180.41 32.83 174.83 30.97 170.93 30.97C164.51 30.97 157.72 34.22 157.72 34.22L154.09 25.02C159.559 22.5307 165.473 21.1702 171.48 21.02C184.13 21.02 191.57 27.47 191.57 37.47ZM180.41 52.92V48.36C177.295 46.8506 173.871 46.0871 170.41 46.13C166.97 46.13 162.22 47.62 162.22 52.36C162.22 57.1 166.78 58.03 170.22 58.03C172.194 58.0039 174.137 57.5306 175.902 56.6455C177.667 55.7604 179.208 54.4866 180.41 52.92Z" fill="#003399"/>
<path d="M236.07 37.67V66.22H224.91V40.47C224.91 34.14 221 31.47 216.17 31.47C210.4 31.47 207.43 37.15 207.43 37.15V66.22H196.27V22.13H206.69V28.55C208.04 26.2482 209.971 24.3413 212.289 23.0198C214.607 21.6984 217.232 21.0088 219.9 21.02C228.45 21.02 236.07 27.06 236.07 37.67Z" fill="#003399"/>
<path d="M262.69 39.06C253.11 35.71 242.33 30.5 242.33 18.41C242.33 9.21 250.51 0 263.62 0C277.2 0 284.83 10.32 284.83 10.32L277.11 17.95C277.11 17.95 271.69 10.6 263.69 10.6C258.11 10.6 253.74 14.04 253.74 18.41C253.74 24.09 258.86 25.85 267.79 29.2C277.74 32.92 286.01 37.39 286.01 49.2C286.01 61.01 275.6 67.33 263.32 67.33C247.05 67.33 239.51 54.03 239.51 54.03L247.88 46.97C247.88 46.97 253.46 56.73 263.32 56.73C268.9 56.73 274.67 54.5 274.67 49.2C274.62 43.71 270.43 41.76 262.69 39.06Z" fill="#0073EA"/>
<path d="M299.96 22.13V27.9C301.448 25.7554 303.437 24.0073 305.755 22.8081C308.074 21.6089 310.65 20.995 313.26 21.02C324.7 21.02 334.74 30.6 334.74 44.18C334.74 57.76 324.74 67.33 313.26 67.33C310.889 67.3849 308.536 66.9035 306.376 65.9217C304.217 64.9399 302.307 63.4831 300.79 61.66V87.66H289.63V22.13H299.96ZM300.79 50.78C301.853 52.6319 303.383 54.1732 305.227 55.2504C307.071 56.3276 309.165 56.9032 311.3 56.92C318.84 56.92 323.39 51.43 323.39 44.18C323.39 36.93 318.84 31.47 311.3 31.47C309.168 31.4827 307.077 32.0523 305.234 33.1223C303.39 34.1923 301.858 35.7255 300.79 37.57V50.78Z" fill="#0073EA"/>
<path d="M377.15 37.47V66.22H366.83V60.64C366.83 60.64 362.27 67.33 352.32 67.33C344.04 67.33 336.41 61.94 336.41 52.55C336.41 44.08 344.13 37.94 353.71 37.94C361.8 37.94 365.99 41.11 365.99 41.11V38.6C365.99 32.83 360.41 30.97 356.5 30.97C350.08 30.97 343.3 34.22 343.3 34.22L339.69 25.02C345.158 22.5291 351.073 21.1686 357.08 21.02C369.69 21.02 377.15 27.47 377.15 37.47ZM365.99 52.92V48.36C362.86 46.8437 359.418 46.0801 355.94 46.13C352.5 46.13 347.76 47.62 347.76 52.36C347.76 57.1 352.32 58.03 355.76 58.03C357.741 58.01 359.692 57.5395 361.464 56.6542C363.236 55.7689 364.784 54.4919 365.99 52.92Z" fill="#0073EA"/>
<path d="M415.46 51.52L422.81 58.96C420.562 61.5954 417.766 63.7093 414.618 65.1548C411.47 66.6002 408.044 67.3425 404.58 67.33C391.38 67.33 380.87 57.1 380.87 44.18C380.87 31.26 391.38 21.02 404.58 21.02C408.001 20.9974 411.387 21.717 414.503 23.1292C417.619 24.5414 420.392 26.6126 422.63 29.2L414.91 36.08C413.615 34.6214 412.024 33.4558 410.242 32.6608C408.461 31.8659 406.531 31.4599 404.58 31.47C397.05 31.47 392.21 37.33 392.21 44.22C392.21 51.11 397.05 56.96 404.58 56.96C406.7 57.0092 408.799 56.5392 410.696 55.5911C412.592 54.6429 414.228 53.2452 415.46 51.52Z" fill="#0073EA"/>
<path d="M466.99 43.99C466.99 44.83 466.99 46.5 466.89 48.17H433.97C434.81 52.08 439.37 57.1 446.34 57.1C450.786 57.1804 455.101 55.5887 458.43 52.64L464.01 61.01C459.013 65.0707 452.779 67.3008 446.34 67.33C432.95 67.33 422.63 57.1 422.63 44.18C422.63 31.26 432.02 21.02 444.76 21.02C456.85 21.02 466.99 30.41 466.99 43.99ZM455.83 40.08C455.64 36.27 452.11 31.16 444.76 31.16C437.6 31.16 434.34 36.16 433.97 40.08H455.83Z" fill="#0073EA"/>
</g>
<defs>
<clipPath id="clip0_3_2">
<rect width="466.98" height="87.61" fill="white"/>
</clipPath>
</defs>
</svg>
